<svg xmlns="http://www.w3.org/2000/svg" viewBox="0 0 850.39 850.39"><g id="ICONS"><path d="M211.78,532.91v.69L267,556.84v31L182.33,546V519.74L267,478.05V509Z" fill="#514897"/><path d="M367,609.57H343.58l49.46-181h23.54Z" fill="#514897"/><path d="M546.68,533.25v-.69L490.92,509V478.05l85.31,41.69v26.34l-85.31,41.85V557.06Z" fill="#514897"/><path d="M53.58,681H686.31V304.16H53.58Zm8.48-368.39H677.83v47.18H62.06Zm0,55.66H677.83V672.55H62.06Z"/><path d="M90.68,319.35a15.49,15.49,0,1,0,15.49,15.49A15.51,15.51,0,0,0,90.68,319.35Zm0,22.5a7,7,0,1,1,7-7A7,7,0,0,1,90.68,341.85Z"/><path d="M127,319.35a15.49,15.49,0,1,0,15.48,15.49A15.51,15.51,0,0,0,127,319.35Zm0,22.5a7,7,0,1,1,7-7A7,7,0,0,1,127,341.85Z"/><path d="M824.67,293l25.72-10.42-.2-3.06a214.64,214.64,0,0,0-3.65-27.42l-.6-3-27.44-3.66L809,221.91,826,200l-1.54-2.5a148.86,148.86,0,0,0-16.61-22.13l-2-2.19-25.57,10.34-20-15.52,3.62-27.09-4-2.66-.57-.31c-7.74-3.58-15.74-7.27-23.82-9.76l-2.8-.86-17,21.87-25-3.5-10.38-26.26-3.08.21c-9,.59-18.2,1.21-27.43,3l-3,.59-3.65,27.47L619,160.82l-21.87-17-2.5,1.55A149.32,149.32,0,0,0,572.54,162l-2.19,2,7.8,19.27h-.56v9.69h.48l-12.9,16.64-27.36-3.65-1.39,2.58a163,163,0,0,0-11,25.76l-1,2.84,21.94,17.06-1.13,8.05h-247v-2.82h-9.69v2.82H69.92a42.1,42.1,0,0,0-42,42.05V699.45H0v29.63c0,12.12,18.08,21.25,42.05,21.25H701.42c24,0,42.05-9.13,42.05-21.25V699.45H715.59v-85h2.81v-9.69h-2.81v-156c.81-.19,1.63-.38,2.45-.6l2.73-.73,3.64-27.23,23.52-9.51,21.89,17,2.5-1.54a148.78,148.78,0,0,0,22.14-16.61l2.18-2L786.3,382l15.52-20,27.36,3.64,1.39-2.57a163,163,0,0,0,11-25.76l1-2.84-21.89-17ZM36.35,304.23a33.61,33.61,0,0,1,33.57-33.57H673.53a33.58,33.58,0,0,1,33.58,33.57V699.45H36.35ZM735,707.93v21.15c0,5.33-12.77,12.77-33.57,12.77H42.05c-20.8,0-33.57-7.44-33.57-12.77V707.93ZM703.27,274.49a41.77,41.77,0,0,0-29.74-12.31h-74.6A88.36,88.36,0,1,1,715.59,368.33v-64.1A41.82,41.82,0,0,0,703.27,274.49ZM832.6,337.4a154.85,154.85,0,0,1-8.13,19l-26.36-3.51-21.5,27.75,9.94,24.57a140.9,140.9,0,0,1-16.19,12.14l-21.09-16.41-32.62,13.2-1.06,8V377.34A96.84,96.84,0,1,0,590.17,262.18H553.8l1.64-11.73-21-16.37a153.69,153.69,0,0,1,8.13-19l26.35,3.52,21.51-27.75-9.95-24.57a140.61,140.61,0,0,1,16.19-12.14l21.11,16.42L651,156.72l3.49-26.25a202.51,202.51,0,0,1,20.28-2.16l9.92,25.1,34.74,4.87,16.41-21.09c6.32,2.18,12.74,5.1,19,8l-3.54,26.54L779,193.22l24.58-9.94a143,143,0,0,1,12.14,16.19l-16.4,21.09,13.18,32.62,26.3,3.51A204.74,204.74,0,0,1,841.5,277l-24.43,9.89L811.51,321Z"/><rect x="288.56" y="233.66" width="9.69" height="12.85"/><rect x="288.56" y="207.96" width="9.69" height="12.85"/><polygon points="298.25 192.9 300.46 192.9 300.46 183.21 288.56 183.21 288.56 195.11 298.25 195.11 298.25 192.9"/><rect x="490.08" y="183.21" width="14.59" height="9.69"/><rect x="431.73" y="183.21" width="14.59" height="9.69"/><rect x="548.42" y="183.21" width="14.59" height="9.69"/><rect x="519.25" y="183.21" width="14.59" height="9.69"/><rect x="460.9" y="183.21" width="14.59" height="9.69"/><rect x="402.56" y="183.21" width="14.59" height="9.69"/><rect x="344.22" y="183.21" width="14.59" height="9.69"/><rect x="315.05" y="183.21" width="14.59" height="9.69"/><rect x="373.39" y="183.21" width="14.59" height="9.69"/><rect x="803.11" y="517.65" width="9.69" height="14.15"/><rect x="803.11" y="489.36" width="9.69" height="14.15"/><rect x="803.11" y="461.07" width="9.69" height="14.15"/><rect x="803.11" y="404.48" width="9.69" height="14.15"/><rect x="803.11" y="376.19" width="9.69" height="14.15"/><rect x="803.11" y="432.77" width="9.69" height="14.15"/><rect x="803.11" y="545.94" width="9.69" height="14.15"/><rect x="803.11" y="574.23" width="9.69" height="14.15"/><polygon points="803.11 604.73 800.9 604.73 800.9 614.42 812.8 614.42 812.8 602.52 803.11 602.52 803.11 604.73"/><rect x="767.9" y="604.73" width="16.5" height="9.69"/><rect x="734.9" y="604.73" width="16.5" height="9.69"/></g></svg>