<svg xmlns="http://www.w3.org/2000/svg" viewBox="0 0 850.39 850.39"><g id="ICONS">
<path d="M849.49,463.53h.67l-.53-286.11-11.93,0,.41,220.28H525.06l-.22-221.14-11.94,0,.3,287h6l-6,.1,1,61.23a19.37,19.37,0,0,0,4.9,12.8c2.93,3.74,8.28,6.17,13.49,6.18,65.21.1,109.55,51.64,110,99.73.19,13.35-4.13,31.77-9.16,50.68H146.6a35.19,35.19,0,0,1-35.15-35.14V615.68H350.14a40.56,40.56,0,0,0,40.52-40.52v-293a40.56,40.56,0,0,0-40.52-40.52H152.56V224.37H140.63V241.6H111.45v-136A35.19,35.19,0,0,1,140.63,71V87.52h11.93V70.46H673.94a35.19,35.19,0,0,1,35.15,35.15v40.18H721V105.61a47.13,47.13,0,0,0-47.08-47.08H146.6a47.13,47.13,0,0,0-47.08,47.08v136h-59A40.57,40.57,0,0,0,0,282.12v293a40.57,40.57,0,0,0,40.52,40.52h59v43.44a47.13,47.13,0,0,0,47.08,47.07H630.27c-.07.24-.13.48-.2.72-6,21.87-11.59,42.53-11.72,57.21v1.31c0,2.28,0,30.23,25,50.11a65.15,65.15,0,0,0,40.66,14,66.09,66.09,0,0,0,47.38-19.76c19-19.52,18.81-41.76,18.68-44.8.27-12.41-5.56-32.89-12.29-56.57-6.63-23.3-14.14-49.7-14.36-65.92-.25-23.47,10.72-48.63,29.32-67.31,20.37-20.45,48.11-31.69,78.24-31.69h.77c11,0,18.67-9.55,18.64-18.15Zm-499.35-210a28.62,28.62,0,0,1,28.59,28.59v293a28.62,28.62,0,0,1-28.59,28.59H152.56V584.08H140.63v19.67H111.45V253.53ZM40.52,603.75a28.63,28.63,0,0,1-28.59-28.59v-293a28.63,28.63,0,0,1,28.59-28.59h59V603.75Zm797.61-194.1.08,41.22H525.12l0-41.22Zm-6.36,121.94h-.85c-33.27,0-64,12.48-86.64,35.2-20.81,20.9-33.07,49.25-32.8,75.87.25,17.83,7.66,43.86,14.82,69,6,21,12.13,42.66,11.84,53.21v.28l0,.28c0,.19,1.06,19.22-15.3,36-19.1,19.6-50.76,21.67-72.07,4.71a53.92,53.92,0,0,1-20.49-40.56v-1.49c.11-13.06,5.54-33,11.29-54.1,6.52-23.91,13.26-48.63,13-66.61-.56-53.77-49.7-111.41-122-111.53h0a6,6,0,0,1-4.07-1.61l-.29-.4-.35-.35a7.7,7.7,0,0,1-1.71-4.81l-1-61.3h0v-.63H837.54l.92,62.68A6.89,6.89,0,0,1,831.77,531.59Z" fill="#fff"/>
<rect x="140.63" y="464.17" width="11.93" height="23.02" fill="#fff"/>
<rect x="140.63" y="424.21" width="11.93" height="23.02" fill="#fff"/>
<rect x="140.63" y="304.3" width="11.93" height="23.02" fill="#fff"/>
<rect x="140.63" y="504.14" width="11.93" height="23.02" fill="#fff"/>
<rect x="140.63" y="264.34" width="11.93" height="23.02" fill="#fff"/>
<rect x="140.63" y="384.24" width="11.93" height="23.02" fill="#fff"/>
<rect x="140.63" y="344.27" width="11.93" height="23.02" fill="#fff"/>
<rect x="140.63" y="544.11" width="11.93" height="23.02" fill="#fff"/>
<rect x="140.63" y="104.47" width="11.93" height="23.02" fill="#fff"/>
<rect x="140.63" y="664.01" width="11.93" height="23.02" fill="#fff"/>
<rect x="140.63" y="624.05" width="11.93" height="23.02" fill="#fff"/>
<rect x="140.63" y="144.43" width="11.93" height="23.02" fill="#fff"/>
<rect x="140.63" y="184.4" width="11.93" height="23.02" fill="#fff"/>
<path d="M683.91,729a33.85,33.85,0,1,0,33.84,33.84A33.88,33.88,0,0,0,683.91,729Zm0,55.76a21.92,21.92,0,1,1,21.91-21.92A21.94,21.94,0,0,1,683.91,784.79Z" fill="#fff"/>
<path d="M822.93,146.54,529.8,146a17.63,17.63,0,0,0-17.73,17.87l.07,22.08S616,181.32,646.76,204.46C669.7,221.71,672,264.32,672,264.32c2.31,22.48,9.61,29.58,20.3,28.83s19.9-10.76,19.15-20.73l-.52,52a17.38,17.38,0,0,0,18.22,18.1,19.48,19.48,0,0,0,18.81-18.94l-.08-24.22a18.24,18.24,0,0,0,18.23,18.1,17.65,17.65,0,0,0,17.74-17.87l1.76-49.89c2.61-30.6,15.67-50,31.21-57.09s33.12-10.37,33.12-10.37l-.07-20.66c.68-9.26-5.2-15.08-15.17-15Zm11.72-2.35" fill="#fff"/></g></svg>