<svg xmlns="http://www.w3.org/2000/svg" viewBox="0 0 850.39 850.39"><g id="ICONS"><path d="M717.07,114c-19.65-18.72-46.26-28.21-74.92-26.73-37.38,1.93-64.49,30.22-75.66,44.15-11.21-13.89-38.4-42.08-75.79-43.91-28.68-1.41-55.25,8.16-74.85,26.94a101.59,101.59,0,0,0-30.92,68c-2.89,51.07,31.23,95.85,57.15,125.1,34.05,38.38,86.8,79.57,121.31,100.43l3.48,2.09,3.47-2.1c34.42-20.91,87.06-62.25,121-100.8,25.83-29.32,59.81-74.2,56.8-125.28A101.56,101.56,0,0,0,717.07,114ZM681.34,298.27c-32,36.27-81,75.09-114.49,96.07-28.12-17.56-79.2-55.65-114.74-95.72-24.34-27.47-56.4-69.32-53.79-115.44,2.28-40.68,33.3-82.42,86.6-82.42,1.68,0,3.39,0,5.12.12,41.81,2.05,70.58,45,70.86,45.45l5.61,8.55,5.61-8.57c.29-.43,28.94-43.51,70.72-45.67,56.42-2.92,89.48,40.07,92,82C737.53,228.79,705.59,270.74,681.34,298.27Z"/><path d="M779.9,0H338c-27.4,0-49.7,23.23-49.7,51.78V362.6H189.16c-24.31,0-44.08,20.62-44.08,46v248c0,25.34,19.77,46,44.08,46h48.56L269,850.39l47.24-147.87H593.77c24.3,0,44.08-20.62,44.08-46V479.48H624.43V656.56c0,17.94-13.75,32.54-30.66,32.54H306.41L271.61,798l-23-108.92H189.16c-16.91,0-30.66-14.6-30.66-32.54v-248c0-17.95,13.75-32.55,30.66-32.55h99.13V426.2c0,28.55,22.3,51.78,49.7,51.78H660.33l51,190.11L761.6,478h18.3c27.4,0,49.7-23.23,49.7-51.78V51.78C829.6,23.23,807.3,0,779.9,0Zm36.29,426.2c0,21.16-16.28,38.37-36.29,38.37H751.28L711.25,616,670.61,464.57H338c-20,0-36.29-17.21-36.29-38.37V51.78C301.7,30.62,318,13.41,338,13.41H779.9c20,0,36.29,17.21,36.29,38.37Z"/><rect x="286.89" y="538.09" width="15.26" height="12.5"/><rect x="408.97" y="538.09" width="15.26" height="12.5"/><rect x="470.01" y="538.09" width="15.26" height="12.5"/><rect x="561.57" y="538.09" width="5" height="12.5"/><rect x="531.05" y="538.09" width="15.26" height="12.5"/><rect x="439.49" y="538.09" width="15.26" height="12.5"/><rect x="225.85" y="538.09" width="15.26" height="12.5"/><rect x="378.45" y="538.09" width="15.26" height="12.5"/><rect x="500.53" y="538.09" width="15.26" height="12.5"/><rect x="317.41" y="538.09" width="15.26" height="12.5"/><rect x="256.37" y="538.09" width="15.26" height="12.5"/><rect x="347.93" y="538.09" width="15.26" height="12.5"/><rect x="506.01" y="591.36" width="15.07" height="12.5"/><rect x="414.45" y="591.36" width="15.26" height="12.5"/><rect x="322.89" y="591.36" width="15.26" height="12.5"/><rect x="292.37" y="591.36" width="15.26" height="12.5"/><rect x="475.49" y="591.36" width="15.26" height="12.5"/><rect x="261.85" y="591.36" width="15.26" height="12.5"/><rect x="444.97" y="591.36" width="15.26" height="12.5"/><rect x="353.41" y="591.36" width="15.26" height="12.5"/><rect x="383.93" y="591.36" width="15.26" height="12.5"/></g></svg>