<svg xmlns="http://www.w3.org/2000/svg" viewBox="0 0 850.39 850.39"><g id="ICONS">
<path d="M802,177.78H711.54L658.19,2.25,657.51,0,647.45,33.1l-44,144.68H48.41A21.49,21.49,0,0,0,27,199.24V694.81a21.49,21.49,0,0,0,21.46,21.46h262a106.84,106.84,0,0,1,2.44,27l-.21,5.4A120.33,120.33,0,0,1,311,762.07c-4.41,24.24-41.78,29.28-42.15,29.33l0,.38H246a21.48,21.48,0,0,0-21.46,21.45v15.7A21.48,21.48,0,0,0,246,850.39H604.44a21.48,21.48,0,0,0,21.46-21.46v-15.7a21.48,21.48,0,0,0-21.46-21.45H581.56l0-.38c-.37,0-37.72-5-42.14-29.33a122.73,122.73,0,0,1-1.9-18.81,106.42,106.42,0,0,1,2.48-27H802a21.48,21.48,0,0,0,21.46-21.46V199.24A21.48,21.48,0,0,0,802,177.78ZM592.76,664.27H72.17V216.7h520.6Zm11.53-448.6c7.24-10,14.84-15.07,22.59-15.09h0c11.75,0,21.7,11.25,24.82,15.19v448.5H604.28Zm59,448.59V215.68c7.24-10,14.84-15.09,22.6-15.1h0c11.76,0,21.7,11.25,24.82,15.19v448.5Zm59-447.56h56V664.27h-56Zm-36.33-27.64h0c-10.31,0-19.9,5.24-28.58,15.54-6-6.37-16.88-15.54-30.4-15.54a31.2,31.2,0,0,0-16.26,4.7l29.51-97.12,31.47-10.52,33.08,108.81A35.59,35.59,0,0,0,685.91,189.06Zm-17.62-114-24,8,13.22-43.5ZM527.65,719.63c-.07.41-.15.82-.21,1.22-.15.91-.27,1.81-.4,2.72,0,.19,0,.37-.08.56q-.44,3.36-.68,6.73c0,.11,0,.21,0,.32-.07,1-.13,2-.17,3l0,.75c0,.86-.06,1.72-.07,2.58,0,.06,0,.13,0,.19H324.42a118.42,118.42,0,0,0-2-19.88H528C527.84,718.43,527.75,719,527.65,719.63Zm86.73,93.6v15.7a10,10,0,0,1-9.94,9.94H246a10,10,0,0,1-9.94-9.94v-15.7A9.94,9.94,0,0,1,246,803.3H604.44A9.94,9.94,0,0,1,614.38,813.23Zm-65.86-21.45H301.88c9.5-5.84,18-14.6,20.4-27.66a133.59,133.59,0,0,0,1.82-14.89H526.31a133.17,133.17,0,0,0,1.81,14.9C530.5,777.18,539,785.94,548.52,791.78Zm263.4-97a10,10,0,0,1-9.94,9.94H48.41a10,10,0,0,1-9.94-9.94V199.24a10,10,0,0,1,9.94-9.94H600l-4.82,15.88H60.65V675.79h729.1V205.18H719.87L715,189.3H802a10,10,0,0,1,9.94,9.94Z" fill="#fff"/>
<polygon points="416.36 506.31 404.84 506.31 404.84 511.39 399.76 511.39 399.76 522.91 416.36 522.91 416.36 506.31" fill="#fff"/>
<rect x="256.88" y="511.39" width="20.57" height="11.52" fill="#fff"/>
<rect x="185.44" y="511.39" width="20.57" height="11.52" fill="#fff"/>
<rect x="221.16" y="511.39" width="20.57" height="11.52" fill="#fff"/>
<rect x="328.32" y="511.39" width="20.57" height="11.52" fill="#fff"/>
<rect x="364.04" y="511.39" width="20.57" height="11.52" fill="#fff"/>
<polygon points="170.29 511.39 165.21 511.39 165.21 506.31 153.69 506.31 153.69 522.91 170.29 522.91 170.29 511.39" fill="#fff"/>
<rect x="153.69" y="436.65" width="11.52" height="20.06" fill="#fff"/>
<rect x="153.69" y="401.83" width="11.52" height="20.06" fill="#fff"/>
<rect x="153.69" y="471.48" width="11.52" height="20.06" fill="#fff"/>
<rect x="153.69" y="332.18" width="11.52" height="20.06" fill="#fff"/>
<rect x="153.69" y="367" width="11.52" height="20.06" fill="#fff"/>
<rect x="153.69" y="297.35" width="11.52" height="20.06" fill="#fff"/>
<polygon points="165.21 277.5 170.29 277.5 170.29 265.99 153.69 265.99 153.69 282.59 165.21 282.59 165.21 277.5" fill="#fff"/>
<rect x="292.6" y="265.99" width="20.57" height="11.52" fill="#fff"/>
<rect x="364.04" y="265.99" width="20.57" height="11.52" fill="#fff"/>
<rect x="328.32" y="265.99" width="20.57" height="11.52" fill="#fff"/>
<rect x="221.16" y="265.99" width="20.57" height="11.52" fill="#fff"/>
<rect x="185.44" y="265.99" width="20.57" height="11.52" fill="#fff"/>
<rect x="256.88" y="265.99" width="20.57" height="11.52" fill="#fff"/>
<polygon points="404.84 282.59 416.36 282.59 416.36 265.99 399.76 265.99 399.76 277.5 404.84 277.5 404.84 282.59" fill="#fff"/>
<rect x="404.84" y="332.18" width="11.52" height="20.06" fill="#fff"/>
<rect x="404.84" y="401.83" width="11.52" height="20.06" fill="#fff"/>
<rect x="404.84" y="297.35" width="11.52" height="20.06" fill="#fff"/>
<rect x="404.84" y="436.65" width="11.52" height="20.06" fill="#fff"/>
<rect x="404.84" y="471.48" width="11.52" height="20.06" fill="#fff"/>
<path d="M425.24,625.19a126,126,0,0,0,0-252q-4.49,0-8.88.32V367H404.84v7.89c-59.8,9.78-105.58,61.8-105.58,124.32q0,6.17.59,12.18H292.6v11.52h8.9C312.62,581.08,363.87,625.19,425.24,625.19Zm-114.46-126a114.66,114.66,0,0,1,94.06-112.64v.49h11.52v-2c2.93-.22,5.89-.34,8.88-.34A114.46,114.46,0,1,1,313.17,522.54V511.39h-1.74A114,114,0,0,1,310.78,499.21Z" fill="#fff"/><polygon points="286.88 415.15 335.41 499.21 383.94 583.27 286.88 583.27 189.81 583.27 238.34 499.21 286.88 415.15" fill="#fff"/></g></svg>