<svg xmlns="http://www.w3.org/2000/svg" viewBox="0 0 850.39 850.39"><g id="ICONS"><path d="M131.41,350.49,259.73,316.7c17.93-4.72,27.91-11.45,30.51-20.58,3-10.48-5-18.94-7.65-21.72-7.35-7.77-11-11.67-14.44-18.66a12.83,12.83,0,0,1,.24-11.11c2.73-5.94,8.93-10.81,16.19-12.72l.55-.15c7.24-1.91,15-.72,20.34,3.11a12.8,12.8,0,0,1,5.67,9.55c.49,7.77-.8,13-3.37,23.34-.92,3.72-3.72,15,4,22.69,6.76,6.65,18.76,7.59,36.69,2.87l128.32-33.78-22-83.5c-5.08-19.32-11.8-29.47-21.14-32-10.18-2.7-18.07,5.29-20.66,7.93-7.28,7.4-10.93,11.11-17.55,14.47a10.77,10.77,0,0,1-9.4-.17c-6.22-2.79-11.41-9.6-13.56-17.76l-.15-.58c-2.15-8.16-1-16.64,3.05-22.14a10.81,10.81,0,0,1,8.1-4.78c7.38-.36,12.4,1.09,22.39,4,9.52,2.72,16.88,1.62,21.88-3.28s6.73-12.27,5.6-23.07h5.8V85.34h-8.13v.53c-.19-.79-.38-1.56-.59-2.37L408.48,0,63.07,91l22,83.5c5.19,19.71,1.57,24,1.15,24.38s-2.22,1.39-7.95-.25c-10.39-3-17.26-5-27-4.5-7.46.35-14.19,4.11-18.95,10.6-6.52,8.89-8.57,22-5.35,34.24l.15.58c3.22,12.23,11.47,22.64,21.53,27.16,7.34,3.3,15,3.25,21.71-.12,8.72-4.42,13.72-9.51,21.28-17.2,4.17-4.25,6.14-4.31,6.79-4.13s5.81,2.07,11,21.77ZM98,230.85c-5.45,0-11,2.83-16.55,8.47-7.27,7.4-10.92,11.11-17.54,14.47a10.77,10.77,0,0,1-9.4-.17c-6.21-2.79-11.41-9.6-13.55-17.74l-.16-.6c-2.15-8.16-1-16.65,3-22.14a10.81,10.81,0,0,1,8.1-4.78c7.4-.35,12.41,1.09,22.39,4C83.83,215,91.2,213.94,96.2,209c6.92-6.76,7.77-18.91,2.68-38.23L80.53,101.13,195,71,398.3,17.46l18.35,69.68c5.19,19.71,1.57,24,1.15,24.38s-2.23,1.39-7.95-.25c-10.76-3.09-17.26-5-27-4.5-7.46.35-14.19,4.11-19,10.61-6.62,9-8.62,21.81-5.36,34.21l.16.6c3.22,12.23,11.47,22.64,21.52,27.15,7.34,3.31,15.06,3.26,21.72-.11,8.71-4.42,13.44-9.23,21.27-17.2,4.19-4.25,6.15-4.3,6.8-4.13s5.81,2.07,11,21.77l18.35,69.68L344.86,279.5c-17.86,4.7-22.31,1.46-23,.76-.9-.88-1.66-3.17-.2-9.07,2.73-11,4.38-17.7,3.76-27.67-.5-8-4.61-15.21-11.58-20.24-8.8-6.36-20.9-8.35-32.34-5.34l-.57.15c-11.44,3-21,10.71-25.52,20.58a26.86,26.86,0,0,0-.1,23.32c4.36,9,9.08,14,16.91,22.23,4.17,4.41,4.63,6.77,4.29,8-.27,1-2.54,6-20.41,10.68L141.59,333l-18.35-69.67c-5.08-19.32-11.8-29.47-21.14-32A15.71,15.71,0,0,0,98,230.85Z"/><path d="M807.78,582.74V329H675.09c-18.49,0-22-4.28-22.46-5.13-.64-1.09-.8-3.49,2.12-8.81,5.45-10,8.74-16,10.69-25.8,1.56-7.89-.59-15.89-6.05-22.53-6.9-8.39-18.08-13.4-29.91-13.4h-.59c-11.83,0-23,5-29.92,13.41a26.86,26.86,0,0,0-6,22.52c1.94,9.79,5.23,15.82,10.69,25.8,2.91,5.32,2.76,7.73,2.12,8.81-.51.86-4,5.13-22.46,5.13H450.59v86.34c0,20.38-4.57,23.57-5.1,23.87s-2.5.78-7.62-2.27c-9.62-5.72-15.43-9.18-25-11.22-7.3-1.56-14.77.37-21,5.43-8.7,7-13.89,18.9-13.89,31.74v.61c0,12.64,5.32,24.81,13.9,31.74,6.26,5.06,13.73,7,21,5.41,9.55-2.06,15.68-5.7,24.95-11.21,5.13-3.05,7.05-2.6,7.63-2.27s5.09,3.49,5.09,23.86v71.68H325.5l-.46,0c-14.68.94-23.8,5-27.87,12.39-5.1,9.27.35,19.22,2.14,22.49,5.13,9.36,7.7,14.07,9.21,21.72A12.81,12.81,0,0,1,305.46,650c-4.15,5.05-11.38,8.19-18.88,8.19H286c-7.49,0-14.72-3.14-18.87-8.19a12.78,12.78,0,0,1-3.06-10.67c1.52-7.7,4.09-12.38,9.2-21.72,1.79-3.26,7.25-13.21,2.15-22.49-4.07-7.4-13.19-11.45-27.87-12.39l-138.78,0v86.35c0,20,3.91,31.51,12.32,36.29,6.09,3.46,13.49,2.65,22-2.4,8.91-5.3,13.39-8,20.66-9.53a10.78,10.78,0,0,1,9.05,2.56c5.3,4.29,8.59,12.19,8.59,20.62v.6c0,8.44-3.29,16.35-8.59,20.64a10.85,10.85,0,0,1-9,2.57c-7.23-1.56-11.72-4.23-20.65-9.54-3.25-1.94-13.14-7.83-22.2-2.68-8.27,4.7-12.12,16.08-12.12,35.83v86.34H240.39c18.55,0,29.91-4,34.75-12.13,5.56-9.38,0-19.6-1.88-23-5.12-9.37-7.69-14.08-9.2-21.73a12.79,12.79,0,0,1,3.05-10.65c4.16-5,11.39-8.19,18.89-8.19h.59c7.49,0,14.72,3.14,18.88,8.19a12.8,12.8,0,0,1,3,10.66c-1.51,7.67-4.09,12.37-9.2,21.73-1.84,3.35-7.44,13.56-1.88,23,4.83,8.16,16.2,12.13,34.75,12.13H583.28c18.55,0,29.91-4,34.75-12.13,5.56-9.37,0-19.59-1.87-23-5.12-9.38-7.7-14.08-9.21-21.74A12.78,12.78,0,0,1,610,782.92c4.15-5.06,11.39-8.19,18.88-8.19h.59c7.49,0,14.73,3.13,18.88,8.19a12.78,12.78,0,0,1,3.06,10.65c-1.52,7.69-4.09,12.38-9.21,21.73-1.84,3.36-7.44,13.57-1.88,23,4.84,8.16,16.21,12.13,34.76,12.13H807.78V582.74Zm-355.21-108c-9.16-5.22-18.82.51-22,2.4-8.92,5.3-13.39,8-20.65,9.53a10.79,10.79,0,0,1-9.05-2.56c-5.3-4.28-8.59-12.19-8.59-20.62v-.61c0-8.44,3.29-16.34,8.59-20.63a10.83,10.83,0,0,1,9.05-2.57c7.23,1.56,11.72,4.22,20.65,9.54,8.51,5.06,15.91,5.86,22,2.4,8.41-4.78,12.32-16.31,12.32-36.29V343.32h118.4c18.55,0,29.92-4,34.75-12.13,5.56-9.38,0-19.6-1.87-22.95-5.12-9.38-7.7-14.09-9.21-21.72A12.81,12.81,0,0,1,610,275.84c4.15-5,11.38-8.19,18.87-8.19h.59c7.49,0,14.72,3.14,18.87,8.19a12.84,12.84,0,0,1,3.07,10.68c-1.52,7.66-4.09,12.36-9.21,21.71-1.84,3.35-7.44,13.56-1.88,22.95,4.84,8.17,16.21,12.14,34.76,12.14H793.48V582.74H675.09c-18.48,0-22-4.27-22.45-5.13a3.15,3.15,0,0,1-.39-1.55c.08-1.44.7-3.61,2.5-6.89,5.45-10,8.74-16,10.69-25.8a26.77,26.77,0,0,0,.49-4.69,27.36,27.36,0,0,0-6.53-18.21c-6.9-8.4-18.08-13.4-29.92-13.4h-.59c-11.83,0-23,5-29.92,13.41a27.51,27.51,0,0,0-6.52,16.94,26,26,0,0,0,.48,6c1.93,9.77,5.22,15.79,10.69,25.81,1.87,3.43,2.47,5.64,2.5,7.07a3,3,0,0,1-.38,1.36c-.51.86-4,5.13-22.46,5.13H464.88V511.06C464.88,491.09,461,479.56,452.57,474.78ZM332.19,836.1c-18.48,0-21.95-4.27-22.46-5.13-.64-1.08-.79-3.49,2.12-8.8,5.46-10,8.75-16,10.69-25.82a26.82,26.82,0,0,0-6-22.5c-6.9-8.4-18.09-13.42-29.92-13.42H286c-11.84,0-23,5-29.93,13.42a26.82,26.82,0,0,0-6,22.5c1.93,9.8,5.22,15.82,10.69,25.83,2.91,5.31,2.76,7.71,2.11,8.79-.5.86-4,5.13-22.45,5.13H123.05V764.05c0-20,4.38-23.12,4.88-23.4.69-.39,2.62-.58,7.84,2.53,9.62,5.73,15.43,9.18,25,11.23,7.31,1.57,14.76-.36,21-5.43,8.58-6.93,13.9-19.1,13.9-31.75v-.6c0-12.64-5.32-24.8-13.89-31.73-6.26-5.07-13.73-7-21-5.43-9.57,2.07-15.69,5.71-25,11.22-5.11,3-7,2.6-7.61,2.27s-5.1-3.49-5.1-23.87V597h123.8c10.16.68,14.94,3,16,5,.49.9.87,3.22-2.15,8.73-5.27,9.61-8.74,16-10.7,25.82a26.87,26.87,0,0,0,6,22.52c6.89,8.39,18.08,13.4,29.91,13.4h.59c11.84,0,23-5,29.92-13.41a26.81,26.81,0,0,0,6-22.51c-1.94-9.81-5.23-15.84-10.69-25.81-2.87-5.24-2.76-7.65-2.16-8.74,1.09-2,5.88-4.32,16-5H450.59v72c0,1.26,0,2.48.05,3.67.46,17.76,4.39,28.18,12.28,32.66,6.09,3.46,13.48,2.65,22-2.41,8.94-5.31,13.42-8,20.67-9.54a10.8,10.8,0,0,1,9,2.57c5.3,4.29,8.6,12.19,8.6,20.64v.56c0,8.43-3.3,16.33-8.59,20.62a10.85,10.85,0,0,1-9,2.57c-7.29-1.58-11.76-4.24-20.67-9.55-.6-.36-1.49-1-2.44-1.65-5-3.49-13.28-9.33-21.44-5.1-7.22,3.75-10.44,13.43-10.44,31.37V836.1Zm342.9,0c-18.49,0-22-4.27-22.46-5.13-.64-1.08-.8-3.49,2.12-8.8,5.45-10,8.75-16,10.69-25.82,1.56-7.88-.59-15.87-6-22.51-6.9-8.39-18.08-13.41-29.92-13.41h-.59c-11.84,0-23,5-29.92,13.41-5.45,6.64-7.6,14.63-6,22.5,1.94,9.82,5.23,15.84,10.69,25.83,2.91,5.32,2.76,7.72,2.12,8.81-.51.85-4,5.12-22.46,5.12H464.88V764c0-20,4.39-23.11,4.89-23.4.68-.39,2.61-.57,7.83,2.53,9.25,5.5,15.36,9.14,25,11.22,7.3,1.56,14.77-.37,21-5.43,8.57-6.93,13.89-19.09,13.89-31.73v-.67c0-12.65-5.33-24.81-13.91-31.74-6.26-5.05-13.73-7-21-5.4-9.59,2.05-15.71,5.7-25,11.21-5.12,3-7,2.6-7.62,2.27s-4.54-3.1-5.05-20.22c0-1.13-.05-2.33-.05-3.6V597.41h118.4c18.55,0,29.91-4,34.75-12.13a17,17,0,0,0,2.39-8.32c.33-6.65-2.93-12.61-4.25-15-5.12-9.33-7.69-14-9.21-21.71a11.32,11.32,0,0,1-.22-2.27,13.54,13.54,0,0,1,3.27-8c4.15-5,11.39-8.19,18.88-8.19h.59c7.49,0,14.72,3.14,18.87,8.18a13.37,13.37,0,0,1,3.28,8.61,11,11,0,0,1-.21,1.68c-1.53,7.71-4.09,12.39-9.21,21.73-1.27,2.32-4.32,7.9-4.27,14.22a17.17,17.17,0,0,0,2.4,9.12c4.83,8.16,16.2,12.13,34.75,12.13H793.48V836.1Z"/><rect x="584.51" y="85.34" width="16.15" height="13.33"/><rect x="552.21" y="85.34" width="16.15" height="13.33"/><rect x="487.63" y="85.34" width="16.15" height="13.33"/><rect x="455.34" y="85.34" width="16.15" height="13.33"/><rect x="519.92" y="85.34" width="16.15" height="13.33"/><polygon points="618.27 100.14 631.6 100.14 631.6 85.34 616.8 85.34 616.8 98.67 618.27 98.67 618.27 100.14"/><rect x="618.27" y="212.98" width="13.33" height="16.12"/><rect x="618.27" y="116.26" width="13.33" height="16.12"/><rect x="618.27" y="148.5" width="13.33" height="16.12"/><rect x="618.27" y="180.74" width="13.33" height="16.12"/><rect x="618.27" y="245.22" width="13.33" height="8.13"/></g></svg>