<svg xmlns="http://www.w3.org/2000/svg" viewBox="0 0 850.39 850.39"><g id="ICONS"><path d="M850.34,294a43.56,43.56,0,0,0-5.4-19.19l-10.6,5.84a31.48,31.48,0,0,1,3.91,13.91Z"/><rect x="708.15" y="252" width="17.35" height="12.1"/><rect x="742.85" y="252" width="17.35" height="12.1"/><rect x="838.29" y="381.05" width="12.1" height="17.35"/><path d="M830.6,427l9.19,7.88A44.22,44.22,0,0,0,849,417.15l-11.72-3A32.05,32.05,0,0,1,830.6,427Z"/><rect x="838.29" y="311.65" width="12.1" height="17.35"/><rect x="769.74" y="438.14" width="17.35" height="12.1"/><rect x="838.29" y="346.35" width="12.1" height="17.35"/><path d="M813.15,252.53l-1.87,12a32.13,32.13,0,0,1,13.4,5.41l7-9.89A44.09,44.09,0,0,0,813.15,252.53Z"/><rect x="777.55" y="252" width="17.35" height="12.1"/><path d="M806.3,438.14h-1.87v12.1h1.87a43.65,43.65,0,0,0,17.45-3.59L819,435.54A31.87,31.87,0,0,1,806.3,438.14Z"/><rect x="578.57" y="78.4" width="8.81" height="12.1"/><rect x="317.97" y="252" width="17.9" height="12.1"/><rect x="353.76" y="252" width="17.9" height="12.1"/><rect x="328.02" y="78.4" width="17.9" height="12.1"/><rect x="292.22" y="78.4" width="17.9" height="12.1"/><rect x="246.38" y="252" width="17.9" height="12.1"/><rect x="282.17" y="252" width="17.9" height="12.1"/><rect x="256.43" y="78.4" width="17.9" height="12.1"/><rect x="363.81" y="78.4" width="17.9" height="12.1"/><rect x="542.78" y="78.4" width="17.9" height="12.1"/><rect x="506.98" y="78.4" width="17.9" height="12.1"/><rect x="471.19" y="78.4" width="17.9" height="12.1"/><rect x="399.6" y="78.4" width="17.9" height="12.1"/><rect x="435.4" y="78.4" width="17.9" height="12.1"/><path d="M72.3,107.25l-10.63-5.78a44.1,44.1,0,0,0-5.31,19.86l12.1.31A31.54,31.54,0,0,1,72.3,107.25Z"/><rect x="103.2" y="252" width="17.9" height="12.1"/><path d="M96.17,90.79l-1.59-12a44.15,44.15,0,0,0-19.18,7.4l6.88,10A31.94,31.94,0,0,1,96.17,90.79Z"/><rect x="220.64" y="78.4" width="17.9" height="12.1"/><rect x="56.34" y="139.38" width="12.1" height="17.9"/><path d="M69.3,227.39a32,32,0,0,1-.85-7.39v-9H56.34v9a44.39,44.39,0,0,0,1.18,10.17Z"/><rect x="56.34" y="175.18" width="12.1" height="17.9"/><path d="M76,240.69l-9.23,7.83a44.32,44.32,0,0,0,16.56,12.15l4.69-11.16A32.26,32.26,0,0,1,76,240.69Z"/><rect x="174.79" y="252" width="17.9" height="12.1"/><rect x="184.84" y="78.4" width="17.9" height="12.1"/><rect x="210.58" y="252" width="17.9" height="12.1"/><rect x="113.25" y="78.4" width="17.9" height="12.1"/><rect x="139" y="252" width="17.9" height="12.1"/><rect x="149.05" y="78.4" width="17.9" height="12.1"/><path d="M749.54,313.13,690.8,257.8V252h-6.16l-50.3-47.38h-242V252h-2.76v12.1h2.76V407.29H273L220.26,331.8H24.36A24.57,24.57,0,0,0,0,356.54v460a16.83,16.83,0,0,0,0,1.74l0,4.48.61,0a22.72,22.72,0,0,0,4,8.2,22.45,22.45,0,0,0,18,8.88H494.87a22.52,22.52,0,0,0,21.69-16.43L567.4,684H749.54V450.24h2.77v-12.1h-2.77Zm-31.7-11.33H645.93V234.07ZM24.36,343.91H214l52.76,75.49H392.39v81.24H129.88a22.64,22.64,0,0,0-21.74,16.42l-96,263.24V356.54A12.46,12.46,0,0,1,24.36,343.91ZM505.1,819.53l-.16.52a10.42,10.42,0,0,1-10.07,7.71H22.61a10.53,10.53,0,0,1-10.5-10.64h0V817a10.49,10.49,0,0,1,.3-2.22L119.59,521l.16-.49a10.5,10.5,0,0,1,10.13-7.74H602.13c8.45,0,9.67,10.28,9.84,13.76ZM737.44,671.94H571.81l51.92-142.36.37-1v-1.07c0-15.82-9-26.87-22-26.87H404.5V216.72h225l4.28,4v93.15h98.9l4.72,4.45Z"/><path d="M542.82,545.1H167.13a19.24,19.24,0,0,0-18.45,13.82l-31.22,78.56-.22.65a19.22,19.22,0,0,0,18.55,24.21h375.7A19.15,19.15,0,0,0,529.9,648.5l31.64-79.63v-1.16C561.54,554.39,553.84,545.1,542.82,545.1Zm-24.29,99.23-.22.69a7,7,0,0,1-6.82,5.21H135.79a7.13,7.13,0,0,1-6.94-8.65L160,563.1l.22-.65a7.13,7.13,0,0,1,6.87-5.25H542.82c5.41,0,6.4,6.69,6.57,9.44Z"/><circle cx="604.52" cy="81.07" r="49.04" fill="#514897"/><circle cx="184.27" cy="255.08" r="49.04" fill="#514897"/><circle cx="304.61" cy="81.07" r="71.3" fill="#514897"/></g></svg>