<svg xmlns="http://www.w3.org/2000/svg" viewBox="0 0 850.39 850.39"><g id="ICONS">
<path d="M534.94,399.09l29.7-2.73q-11.34,29.58-38.72,48.26Q494.57,466.06,447,470.43q-46,4.23-80.88-8.24t-54-41.28a137.54,137.54,0,0,1-22.38-64.5,150,150,0,0,1,11.83-74.68q15.42-35.51,46.07-55.41t72-23.7q35.13-3.24,63.71,7.91t45.31,35a109,109,0,0,1,19.49,53.66q3.27,35.55-16,66.27-24.12,38.78-67.06,42.72-11.56,1.06-17.79-2.44a19.62,19.62,0,0,1-8.9-11.13q-15,17.4-36.45,19.38-23.15,2.13-39.87-12.43t-19.17-41a104.44,104.44,0,0,1,12.9-61.5q19.27-34.93,54.13-38.15,24.81-2.28,38.4,15.59l2.06-15.79,36.8-3.39L475.46,359.15q-1.08,9.66-.82,12.45a7.55,7.55,0,0,0,2.08,5.08,5.07,5.07,0,0,0,4,1.39q6.69-.61,16.54-9.68,13.25-11.89,20.38-30.55A82.9,82.9,0,0,0,523,300.1Q519.88,265.8,492.94,245t-71.4-16.7q-37.77,3.47-62.63,21.29a98.21,98.21,0,0,0-35.6,47,134.3,134.3,0,0,0-8,59.42,100.55,100.55,0,0,0,19.76,52.17A86.71,86.71,0,0,0,380,439.55q27.86,8.61,62.42,5.43,33.32-3.06,56.44-14.53T534.94,399.09ZM379,355.65q1.63,17.72,9.58,25.41a22.59,22.59,0,0,0,18.54,6.73,30.21,30.21,0,0,0,14.56-5.28,36.86,36.86,0,0,0,9.64-9.74q6.62-9.18,10.48-26t2.57-30.88q-1.46-15.75-9.55-23.51a23.48,23.48,0,0,0-19.24-6.73q-12,1.09-21.31,11.31t-12.9,27.82Q377.78,342.42,379,355.65Z" fill="#fff"/>
<path d="M850.36,819c0-.85,0-1.71,0-2.6V298.16l-67.29-48.29-11-174.51L557.56,88.07,454.79,14.34c-2.16-1.64-20.2-14.3-42.77.5-4.17,2.74-46.83,32.61-126.8,88.78l.4.56L45.22,118.43l9.34,147.34L.06,304.11V816.2l-.06,0L.06,819v1.93H.13c.88,12.19,10.23,24.85,24.62,24.85l800.61.31h.29l.29,0c8.15-.7,22.78-6.93,24.31-25.14h.11ZM787.12,314.41h35.8l-34.23,25.15ZM836.81,321V802.28L522.36,552.15Zm-5.94-20.17h-44.6l-2.11-33.51ZM419.46,26.17c15.15-9.94,26.64-1.41,27.07-1.09l89.55,64.26-226,13.4C378.91,54.39,415.71,28.64,419.46,26.17Zm340,63.52,16.27,259.42L511.37,543.41l-63.63-50.62c-.76-.61-19-14.74-42.07.36-3.18,2.08-27.92,21.55-63.73,50L73.33,347.64,59.6,131.16ZM13.61,805.34V320.94L330.92,551.87C230.38,631.77,59.32,768.73,13.61,805.34ZM59.09,337.28,27.66,314.41h30Zm-2.31-36.43H28.25l27.31-19.22ZM825,832.53l-800.24-.32c-5.43,0-9.47-4.66-10.72-9.83l15-12H44v-12c139.78-111.94,360-288,369.08-293.87h0c14.42-9.45,25.09-1.93,26.2-1.09L808.46,797.05H796.33v13.29h17.49v-9l22.94,18.25C835.86,830.4,827.27,832.24,825,832.53Z" fill="#fff"/>
<rect x="201.47" y="797.05" width="17.5" height="13.29" fill="#fff"/>
<rect x="166.48" y="797.05" width="17.5" height="13.29" fill="#fff"/>
<rect x="131.49" y="797.05" width="17.5" height="13.29" fill="#fff"/>
<rect x="61.5" y="797.05" width="17.5" height="13.29" fill="#fff"/>
<rect x="96.5" y="797.05" width="17.5" height="13.29" fill="#fff"/>
<rect x="236.46" y="797.05" width="17.5" height="13.29" fill="#fff"/>
<rect x="411.42" y="797.05" width="17.5" height="13.29" fill="#fff"/>
<rect x="621.37" y="797.05" width="17.5" height="13.29" fill="#fff"/>
<rect x="551.39" y="797.05" width="17.5" height="13.29" fill="#fff"/>
<rect x="586.38" y="797.05" width="17.5" height="13.29" fill="#fff"/>
<rect x="656.36" y="797.05" width="17.5" height="13.29" fill="#fff"/>
<rect x="691.35" y="797.05" width="17.5" height="13.29" fill="#fff"/>
<rect x="761.34" y="797.05" width="17.5" height="13.29" fill="#fff"/>
<rect x="726.34" y="797.05" width="17.5" height="13.29" fill="#fff"/>
<rect x="516.39" y="797.05" width="17.5" height="13.29" fill="#fff"/>
<rect x="341.44" y="797.05" width="17.5" height="13.29" fill="#fff"/>
<rect x="376.43" y="797.05" width="17.5" height="13.29" fill="#fff"/>
<rect x="306.45" y="797.05" width="17.5" height="13.29" fill="#fff"/>
<rect x="271.45" y="797.05" width="17.5" height="13.29" fill="#fff"/>
<rect x="481.4" y="797.05" width="17.5" height="13.29" fill="#fff"/>
<rect x="446.41" y="797.05" width="17.5" height="13.29" fill="#fff"/></g></svg>