<svg width="1177" height="404" xmlns="http://www.w3.org/2000/svg"><g fill="#FFF" fill-rule="nonzero"><path d="M201.8 286.9h-90.2l-20-39.8-31.5 97H0L111.6.6h57.2l111.6 343.5h-60.1l-18.5-57.2zm-18.6-57.2L140.3 97.8 97.4 229.7h85.8zM433 57.9v286.2h-57.2V57.9H297L268.4.7h238v57.2H433zm514 62.2v224.1h-57.2V.7h63.3l79.9 164.9L1112.9.7h63.3v343.5H1119V120.1l-85.9 177.5L947 120.1zm-199.6-19.4H642.5c-3 0-5.4-2.4-5.4-5.4 0-3 2.4-5.4 5.4-5.4h104.9c3 0 5.4 2.4 5.4 5.4 0 3-2.4 5.4-5.4 5.4zm0 48.3H642.5c-3 0-5.4-2.4-5.4-5.4 0-3 2.4-5.4 5.4-5.4h104.9c3 0 5.4 2.4 5.4 5.4 0 2.9-2.4 5.4-5.4 5.4zm0 48.2H642.5c-3 0-5.4-2.4-5.4-5.4 0-3 2.4-5.4 5.4-5.4h104.9c3 0 5.4 2.4 5.4 5.4 0 3-2.4 5.4-5.4 5.4zm0 48.2h-50.6c-3 0-5.4-2.4-5.4-5.4 0-3 2.4-5.4 5.4-5.4h50.6c3 0 5.4 2.4 5.4 5.4 0 3-2.4 5.4-5.4 5.4z"/><path d="M814.3 1.3H581c-11.9 0-21.7 9.8-21.7 21.7v307.4c0 11.9 9.8 21.7 21.7 21.7h123.1l86.7 51.2v-51.2h23.5c11.9 0 21.7-9.8 21.7-21.7V23c0-11.9-9.8-21.7-21.7-21.7zM613.6 290.5V62.9c0-4 3.3-7.3 7.3-7.3h153.5c4 0 7.3 3.3 7.3 7.3v227.7c0 4-3.3 7.3-7.3 7.3H620.9c-4 0-7.3-3.3-7.3-7.4z"/></g></svg>
