<svg xmlns="http://www.w3.org/2000/svg" viewBox="0 0 850.39 850.39"><g id="ICONS">
<path d="M839.61,46a36.64,36.64,0,0,0-26.07-10.81l-384.16-1h0A36.91,36.91,0,0,0,392.49,71l-.07,93-231.21.28a35.08,35.08,0,0,0-35.05,35.11l.7,587.26A35.16,35.16,0,0,0,162,821.7h0l259-.32a35.08,35.08,0,0,0,35.05-35.12l0-33.71,357,.89h0a36.87,36.87,0,0,0,36.87-36.86l.46-644.53A36.61,36.61,0,0,0,839.61,46ZM438.25,803.54A24.22,24.22,0,0,1,421,810.7L162,811h0a24.46,24.46,0,0,1-24.43-24.38l-.3-255.23H145l.25,207.09a15,15,0,0,0,15,15h0l262.19-.31h0a15.05,15.05,0,0,0,15-15l-.61-500.48a15,15,0,0,0-15-15h0L159.67,223a15.05,15.05,0,0,0-15,15L145,520.73h-7.77l-.38-321.35A24.39,24.39,0,0,1,161.22,175l259-.31h0A24.41,24.41,0,0,1,444.68,199l.7,587.25A24.23,24.23,0,0,1,438.25,803.54Zm-15.77-61.21-262.19.32h0a4.2,4.2,0,0,1-4.16-4.17L155.52,238a4.17,4.17,0,0,1,4.16-4.17l262.18-.32h0a4.2,4.2,0,0,1,4.16,4.17l.61,500.47a4.17,4.17,0,0,1-4.17,4.17Zm22.57-568.12a34.81,34.81,0,0,0-16.66-9.29l0-54.59a4.83,4.83,0,0,1,4.81-4.81h0l377.12.94a4.86,4.86,0,0,1,4.83,4.85l-.4,554.31a4.83,4.83,0,0,1-4.81,4.8h0l-354-.87L455.36,199A34.84,34.84,0,0,0,445.05,174.21Zm394.2,542.37a26.2,26.2,0,0,1-26.18,26.18h0l-357-.89-.07-61.79,354,.87h0a15.36,15.36,0,0,0,15.33-15.33l.41-554.3a15.4,15.4,0,0,0-15.34-15.38L433.27,95h0a15.36,15.36,0,0,0-15.34,15.33l0,53.65-14.76,0,.07-93a26.21,26.21,0,0,1,26.18-26.17h0l384.16,1A26.19,26.19,0,0,1,839.71,72Z" fill="#fff"/>
<path d="M619.13,689.33h0A19.89,19.89,0,1,0,639,709.24h0a19.89,19.89,0,0,0-19.89-19.91Zm0,29.1a9.21,9.21,0,0,1,0-18.42h0a9.21,9.21,0,1,1,0,18.42Z" fill="#fff"/>
<path d="M713.4,72.44H531a5.43,5.43,0,0,0,0,10.86H713.4a5.43,5.43,0,1,0,0-10.86Z" fill="#fff"/>
<path d="M291.78,760.94h0a19.07,19.07,0,0,0,0,38.13h0A19.1,19.1,0,0,0,310.85,780h0a19.09,19.09,0,0,0-19.07-19Zm0,27.45h0a8.39,8.39,0,0,1-5.92-14.31,8.6,8.6,0,0,1,5.93-2.46,8.39,8.39,0,1,1,0,16.77Z" fill="#fff"/>
<path d="M357.44,195.27H224.78a5.34,5.34,0,0,0,0,10.68H357.44a5.34,5.34,0,1,0,0-10.68Z" fill="#fff"/>
<path d="M67.11,518.58a112.26,112.26,0,0,0,15,6.53L85.62,515a101.56,101.56,0,0,1-13.54-5.9Z" fill="#fff"/>
<path d="M68.17,319.55l4.87,9.5a101.38,101.38,0,0,1,13.59-5.75L83.2,313.19A110.81,110.81,0,0,0,68.17,319.55Z" fill="#fff"/>
<path d="M41.68,338.43l7.39,7.71a102.4,102.4,0,0,1,11.37-9.42l-6.2-8.7A112.62,112.62,0,0,0,41.68,338.43Z" fill="#fff"/>
<path d="M17.84,419.34c0-2.63.1-5.29.3-7.91l-10.65-.82c-.22,2.89-.34,5.83-.34,8.72,0,2.5.09,5.05.26,7.58l10.65-.71C17.91,423.91,17.84,421.6,17.84,419.34Z" fill="#fff"/>
<path d="M20.11,440.81,9.68,443.07a111.42,111.42,0,0,0,4.59,15.65l10-3.75A101.76,101.76,0,0,1,20.11,440.81Z"/><path d="M40.81,499.41A113.72,113.72,0,0,0,53.26,510l6.29-8.63a102.31,102.31,0,0,1-11.26-9.54Z" fill="#fff"/>
<path d="M21.1,473.53A112.66,112.66,0,0,0,30,487.18l8.49-6.47a102,102,0,0,1-8.06-12.36Z" fill="#fff"/>
<path d="M21.69,364.11,31,369.38a101.7,101.7,0,0,1,8.2-12.28l-8.43-6.56A112,112,0,0,0,21.69,364.11Z" fill="#fff"/>
<path d="M24.65,382.72l-10-3.86a113.07,113.07,0,0,0-4.77,15.62l10.42,2.36A101.39,101.39,0,0,1,24.65,382.72Z" fill="#fff"/>
<rect x="316.47" y="520.73" width="15.56" height="10.68" fill="#fff"/>
<path d="M97.83,529.37A112.13,112.13,0,0,0,114,531.3l.48-10.67a102.42,102.42,0,0,1-14.65-1.74Z" fill="#fff"/>
<rect x="254.26" y="520.73" width="15.56" height="10.68" fill="#fff"/>
<rect x="347.58" y="520.73" width="15.56" height="10.68" fill="#fff"/>
<rect x="285.37" y="520.73" width="15.56" height="10.68" fill="#fff"/>
<rect x="223.15" y="520.73" width="15.55" height="10.68" fill="#fff"/>
<rect x="160.93" y="520.73" width="15.56" height="10.68" fill="#fff"/>
<path d="M99,309.09l1.92,10.51A101.41,101.41,0,0,1,115.58,318l-.37-10.68A114.28,114.28,0,0,0,99,309.09Z" fill="#fff"/>
<rect x="192.04" y="520.73" width="15.55" height="10.68" fill="#fff"/>
<g id="Jan_with_Paperplane"><g id="Plane_Backdrop"><polygon points="313.95 474.04 310.16 419.49 686.97 513.51 313.95 474.04" fill="#fff"/><polygon points="686.97 513.51 321.14 629.86 314.64 582.55 686.97 513.51" fill="#fff"/></g><g id="Plane_Front"><polygon points="686.97 513.51 260.68 582.55 312.97 486.12 686.97 513.51" fill="#fff"/></g></g></g></svg>