<svg xmlns="http://www.w3.org/2000/svg" viewBox="0 0 850.39 850.39"><g id="ICONS"><path d="M769.83,67.05l-.82-.21-90.37-1c1.57-24.05,2.19-44.22,2.41-58.79l.1-7L192.92.87,193.1,8c.4,16.56,1.2,36.18,2.7,57.93l-84.54.94-.82.21c-11.83,3.07-34.15,16.38-33.9,44.78v.22c.1,2.47,2.77,61.22,31.5,129.58C125,281.87,147.46,317,174.9,346c33,34.83,73.15,60.85,119.51,77.41q5.71,8.55,11.73,16.5c31.77,42,64.48,68.93,97.66,80.62.42,16.31-.51,60.18-20.93,82.5-8,8.76-18,13.07-30.49,13.18l-17.79.15.21,23.87H260.2V850.39H624.32V640.22H552l-.23-25.76-17.66.15h-.48c-12.29,0-22.2-4.13-30.29-12.63-20.69-21.75-22.71-65.1-22.69-81.74,32.74-12,64-39.25,93.44-81.58q4.86-7,9.52-14.46c47.33-16.51,88.29-42.81,121.79-78.21,27.44-29,49.93-64.12,66.85-104.36,28.74-68.36,31.4-127.11,31.5-129.58v-.22C804,83.43,781.66,70.12,769.83,67.05ZM213.41,204.92q14.88,77.58,39.29,138-3.8-2.26-7.49-4.68c-59.37-38.83-96.49-105-110.32-196.72l0-.16c0-.07-1-7.19,3.26-12.71,3.45-4.43,9.6-7,18.29-7.72l44.3-.59C203.71,147.23,207.82,175.81,213.41,204.92ZM121,236.68C93.67,171.85,90.55,114.31,90.41,111.59c-.12-22.33,18.83-29.61,22.81-30.9l83.61-.92c.68,8.64,1.48,17.58,2.4,26.75l-43.22.57-.44,0c-12.87,1-22.42,5.36-28.4,13.06-7.76,10-6.25,21.85-6,23.45,7.88,52.23,23.47,97.26,46.34,133.82,18.68,29.87,42.27,54.24,70.1,72.44a221.72,221.72,0,0,0,23.88,13.59,446.6,446.6,0,0,0,20.71,40.3C208.94,372.83,154.78,316.72,121,236.68ZM610.45,836.52H274.08V654.1H610.45Zm-117.21-225c10.83,11.4,24.58,17.17,41,17l3.79,0,.1,11.76H348.67l-.09-10.11,3.92,0c16.34-.14,30-6.09,40.61-17.68,22.23-24.31,24.8-67.34,24.65-87.86a111.48,111.48,0,0,0,24.16,2.7l2.25,0a110.49,110.49,0,0,0,22.57-2.84C467.05,545,470.59,587.7,493.24,611.52Zm69.42-180.78c-37.46,54-77.43,81.74-118.78,82.59-42.26.84-84.92-26.65-126.68-81.81-4.43-5.84-8.67-11.91-12.76-18.14l.36-1.06-1.34-.47a415,415,0,0,1-30.67-57.35l.38-.84-.94-.44c-42.66-97-57.72-214.86-62.92-294.07h8.88V45.27h-9.72c-.61-11.2-1-21.46-1.31-30.55L667,13.9C665.41,87.21,652.66,301.13,562.66,430.74ZM759.43,236.25c-34.24,81.44-89.56,138.14-164.6,168.84q10.29-18.58,19.42-39.46a222.48,222.48,0,0,0,28.4-15.75c27.84-18.2,51.43-42.57,70.11-72.44,22.87-36.56,38.46-81.58,46.34-133.81.25-1.59,1.77-13.47-6-23.46-6-7.7-15.54-12.09-28.41-13.06l-48.75-.66-.19,13.87,48.11.64c8.61.68,14.74,3.25,18.2,7.62,4.42,5.57,3.35,12.8,3.35,12.81l0,.16c-13.83,91.7-51,157.89-110.32,196.72q-6.16,4-12.64,7.64c16.08-41,29.09-87.72,38.92-140A1169.8,1169.8,0,0,0,677.67,79.7l89.37,1C771.1,82,790,89.3,789.85,111.59,789.72,114.33,786.66,171.47,759.43,236.25Z"/><rect x="269.01" y="45.27" width="16.94" height="13.87"/><rect x="336.78" y="45.27" width="16.94" height="13.87"/><rect x="302.9" y="45.27" width="16.94" height="13.87"/><rect x="235.13" y="45.27" width="16.94" height="13.87"/><rect x="573.96" y="45.27" width="16.94" height="13.87"/><rect x="540.07" y="45.27" width="16.94" height="13.87"/><rect x="607.84" y="45.27" width="16.94" height="13.87"/><rect x="641.72" y="45.27" width="16.94" height="13.87"/><rect x="506.19" y="45.27" width="16.94" height="13.87"/><rect x="370.66" y="45.27" width="16.94" height="13.87"/><rect x="404.54" y="45.27" width="16.94" height="13.87"/><rect x="438.43" y="45.27" width="16.94" height="13.87"/><rect x="472.31" y="45.27" width="16.94" height="13.87"/><path d="M558.16,677.3H326.37v136H558.16ZM544.28,799.44h-204V691.18h204Z"/></g></svg>