<svg xmlns="http://www.w3.org/2000/svg" viewBox="0 0 2423.5 829" xml:space="preserve"><path fill="#999" d="M563.7 440.5c-1-104.9 85.7-155.3 89.6-157.7-48.8-71.3-124.6-81.1-151.6-82.2-64.5-6.6-125.9 38-158.7 38s-83.3-37.1-136.8-36c-70.4 1-135.3 40.9-171.6 103.9C-38.4 433.1 16 621.1 87.3 724c34.9 50.3 76.3 107 130.9 104.9 52.6-2.1 72.4-34 135.8-34s81.3 34 136.8 33c56.5-1.1 92.3-51.4 126.9-101.9 39.8-58.5 56.3-115 57.3-118-1.3-.5-110.1-42.2-111.3-167.5M459.4 132.4c29-35.1 48.5-83.8 43.2-132.4-41.7 1.7-92.2 27.8-122.1 62.9-26.8 31-50.3 80.6-43.9 128.2 46.3 3.6 93.9-23.7 122.8-58.7m470 411.2-48 145.5h-61.7l157.1-462.4h72l157.7 462.4h-63.8l-49.4-145.5H929.4zm151.6-46.7-45.2-133.1c-10.3-30.2-17.1-57.6-24-84.4h-1.3c-6.9 27.4-14.4 55.5-23.3 83.7L942 496.8l139 .1zm172.3-31.5c0-42.5-1.3-76.9-2.8-108.4h54.2l2.8 57h1.3c24.7-40.5 63.8-64.5 118-64.5 80.3 0 140.6 67.9 140.6 168.8 0 119.4-72.7 178.3-150.9 178.3-43.9 0-82.3-19.2-102.2-52.1h-1.3v180.4h-59.7V465.4zm59.6 88.5c0 9 1.3 17.1 2.8 24.7 11 41.8 47.3 70.7 90.6 70.7 63.8 0 100.9-52.1 100.9-128.3 0-66.6-35-123.4-98.8-123.4-41.1 0-79.5 29.5-91.3 74.8-2.1 7.5-4.1 16.5-4.1 24.7l-.1 56.8zm316.9-88.5c0-42.5-1.3-76.9-2.8-108.4h54.2l2.8 57h1.3c24.7-40.5 63.8-64.5 118-64.5 80.3 0 140.6 67.9 140.6 168.8 0 119.4-72.7 178.3-150.9 178.3-43.9 0-82.3-19.2-102.2-52.1h-1.3v180.4h-59.7V465.4zm59.7 88.5c0 9 1.3 17.1 2.8 24.7 11 41.8 47.3 70.7 90.6 70.7 63.8 0 100.9-52.1 100.9-128.3 0-66.6-35-123.4-98.8-123.4-41.1 0-79.5 29.5-91.3 74.8-2.1 7.5-4.1 16.5-4.1 24.7l-.1 56.8zM2006.4 202h60.4v487h-60.4V202zm181.8 332c1.3 81.6 53.5 115.3 113.8 115.3 43.2 0 69.3-7.5 91.9-17.1l10.3 43.2c-21.2 9.6-57.6 20.6-110.4 20.6-102.2 0-163.3-67.2-163.3-167.4s59-179.1 155.7-179.1c108.4 0 137.2 95.3 137.2 156.4 0 12.4-1.3 21.9-2.1 28.1h-233.1zm177-43.2c.7-38.4-15.8-98.1-83.7-98.1-61.1 0-87.8 56.3-92.6 98.1h176.3z"/></svg>
